<svg xmlns="http://www.w3.org/2000/svg" width="106" height="48" fill="none" class="css-z8opiu" viewBox="0 0 106 48"><rect width="105.999" height="38" x=".001" y="4" fill="#FAE300" rx="19"/><path fill="#391B1B" fill-rule="evenodd" d="m28.866 18.007 3.524 9.464h-.001a1.143 1.143 0 0 1-.715 1.464 1.175 1.175 0 0 1-1.49-.702l-.6-1.68h-4.82l-.6 1.68a1.175 1.175 0 0 1-1.49.702 1.143 1.143 0 0 1-.715-1.464l3.464-9.124c.02-.055.044-.105.068-.155.141-.675.853-1.192 1.713-1.192.775 0 1.425.42 1.65.996l.012.011Zm-1.716 1.86-1.62 4.54h3.292l-1.62-4.535c-.009 0-.017-.002-.026-.003a.18.18 0 0 0-.026-.002Zm8.824 6.908h3.287c.604 0 1.09.479 1.09 1.072a1.08 1.08 0 0 1-1.09 1.072h-4.804a1.08 1.08 0 0 1-1.07-1.277 1.224 1.224 0 0 1-.02-.205v-9.155c0-.709.583-1.282 1.303-1.282s1.304.573 1.304 1.282v8.493Zm-20.77-9.609h7.069l-.002.001c.665 0 1.204.529 1.204 1.18 0 .653-.539 1.181-1.204 1.181h-2.17v8.316c0 .304-.125.6-.345.815a1.182 1.182 0 0 1-.826.337h-.256a1.18 1.18 0 0 1-.827-.337 1.147 1.147 0 0 1-.346-.815v-8.317h-2.298a1.192 1.192 0 0 1-1.202-1.18c0-.652.539-1.181 1.202-1.181Zm34.562 9.998-3.663-4.725 3.31-3.251a1.112 1.112 0 0 0 0-1.594 1.164 1.164 0 0 0-1.624 0l-4.098 4.024v-3.336c0-.709-.584-1.282-1.304-1.282-.72 0-1.305.573-1.305 1.282v9.435c0 .709.584 1.282 1.305 1.282a1.29 1.29 0 0 0 1.304-1.282v-2.91l.745-.73 3.465 4.464c.386.506 1.119.61 1.633.228.515-.38.62-1.098.232-1.605Z" clip-rule="evenodd"/><path fill="#391B1B" d="M56.002 27.222h7.476v2.828h1.148v-3.752h-8.624v.924Zm4.984-2.968v-1.33h3.78v-.896h-7.392v-1.26h6.986V19.9h-6.986v-1.19h7.322v-.896h-8.47v5.11h3.612v1.33h-5.11v.924h11.368v-.924h-5.11Zm14.699-2.702h-6.188V18.99h6.188v2.562Zm1.134-3.486h-8.442v4.41h8.442v-4.41Zm-7.322 8.106h-1.148v3.584h8.68v-.938h-7.532v-2.646Zm-2.604-2.268v.924h5.222v2.534h1.148v-2.534h5.04v-.924h-11.41Zm16.28-5.502c-1.945 0-3.36 1.19-3.36 2.954 0 1.75 1.415 2.954 3.36 2.954 1.96 0 3.36-1.204 3.36-2.954 0-1.764-1.4-2.954-3.36-2.954Zm0 .98c1.303 0 2.24.798 2.24 1.974 0 1.162-.937 1.974-2.24 1.974-1.287 0-2.24-.812-2.24-1.974 0-1.176.953-1.974 2.24-1.974Zm5.013-1.904v12.586h1.148V17.478h-1.148Zm-8.862 9.828c2.268 0 5.306-.028 8.134-.546l-.098-.854c-2.744.42-5.894.434-8.176.434l.14.966Z"/><path fill="#FAE300" d="M15.001 48V38h10l-10 10Z"/></svg>